:version 1.10
:name ASF
:units
  mass 1
  length 1
  angle deg
:documentation
  ASF file generated by Kaydara
:root
  axis xyz
  order  tx ty tz rx ry rz
  position 0 0 0
  orientation 0 0 0
:bonedata
  begin
    id 1
    name RightUpLegDummy
    direction -1 2.30186e-007 8.31532e-007
    length 4.46685
    axis 0 0 0 xyz
  end
  begin
    id 2
    name RightUpLeg
    direction -2.30187e-007 -1 1.24343e-010
    length 16.4045
    axis -3.49089 -0.000906625 0.000286804 xyz
    dof rx ry rz
  end
  begin
    id 3
    name RightLeg
    direction -2.30181e-007 -1 -4.17157e-009
    length 17.5097
    axis 3.68512 0.0193738 -0.131023 xyz
    dof rx ry rz
  end
  begin
    id 4
    name RightFoot
    direction 8.31421e-007 -4.51202e-011 1
    length 6.49508
    axis 4.81691e-005 -0.120479 -0.188788 xyz
    dof rx ry rz
  end
  begin
    id 5
    name RightToes
    direction 0.00124746 -0.014064 0.9999
    length 3.85082
    axis 0.000481921 0.542163 -0.142578 xyz
    dof rx ry rz
  end
  begin
    id 6
    name SpineDummy
    direction 0.0717043 0.9409 -0.331007
    length 10.0032
    axis 0 0 0 xyz
  end
  begin
    id 7
    name Spine
    direction 2.30186e-007 1 4.58806e-011
    length 9.84055
    axis -0.001389 0.000121418 2.40972e-006 xyz
    dof rx ry rz
  end
  begin
    id 8
    name Spine1
    direction 0 0 0
    length 0
    axis -0.001389 0.000121451 1.30017e-006 xyz
    dof rx ry rz
  end
  begin
    id 9
    name HEadDummy
    direction -0.00347485 0.950688 -0.310128
    length 8.00997
    axis -0.001389 0.000121451 1.30017e-006 xyz
  end
  begin
    id 10
    name HEad
    direction -0.0222688 0.980941 0.193023
    length 5.12695
    axis -0.001389 0.000121451 1.30017e-006 xyz
    dof rx ry rz
  end
  begin
    id 11
    name LeftShoulder1Dummy
    direction 0.988871 0.146793 -0.0242004
    length 3.5792
    axis -0.001389 0.000121451 1.30017e-006 xyz
  end
  begin
    id 12
    name LeftShoulder1
    direction 0.993832 0.108932 0.020779
    length 4.16823
    axis -0.001389 0.000121451 1.30017e-006 xyz
    dof rx ry rz
  end
  begin
    id 13
    name LeftArm
    direction 1 3.44807e-006 -8.31404e-007
    length 9.91437
    axis -23.1894 0.134784 0.967509 xyz
    dof rx ry rz
  end
  begin
    id 14
    name LeftForeArm
    direction 1 3.44842e-006 -8.31581e-007
    length 9.08575
    axis -9.91835 -0.06569 -0.177793 xyz
    dof rx ry rz
  end
  begin
    id 15
    name LeftHand
    direction 0.992938 -0.0411636 0.11126
    length 5.32135
    axis -0.00960232 -0.00340091 0.185173 xyz
    dof rx ry rz
  end
  begin
    id 16
    name RightShoulderDummy
    direction -0.988871 0.146793 -0.0241962
    length 3.5792
    axis -0.001389 0.000121451 1.30017e-006 xyz
  end
  begin
    id 17
    name RightShoulder
    direction -0.993832 0.108933 0.0207785
    length 4.16823
    axis 0.215806 0.000203643 -0.0068026 xyz
    dof rx ry rz
  end
  begin
    id 18
    name RightArm
    direction -1 3.90912e-006 8.31284e-007
    length 9.91437
    axis -23.2009 -0.134239 -0.964101 xyz
    dof rx ry rz
  end
  begin
    id 19
    name RightForeArm
    direction -1 3.90882e-006 8.31502e-007
    length 9.08575
    axis -9.92322 0.0658061 0.178867 xyz
    dof rx ry rz
  end
  begin
    id 20
    name RightHand
    direction -0.992843 -0.0414603 0.112003
    length 5.28593
    axis -0.00960638 0.00330671 -0.185228 xyz
    dof rx ry rz
  end
  begin
    id 21
    name LeftUpLegDummy
    direction 1 -2.30186e-007 -8.31532e-007
    length 4.46685
    axis 0 0 0 xyz
  end
  begin
    id 22
    name LeftUpLeg
    direction -2.30187e-007 -1 6.00931e-010
    length 16.4045
    axis -3.48766 0.00143442 -0.000524262 xyz
    dof rx ry rz
  end
  begin
    id 23
    name LeftLeg
    direction -2.30187e-007 -1 1.6669e-009
    length 17.5097
    axis 3.68178 -0.00654042 -0.000285133 xyz
    dof rx ry rz
  end
  begin
    id 24
    name LeftFoot
    direction 8.31532e-007 -4.54478e-011 1
    length 6.49508
    axis 1.87233e-006 4.66016e-005 -8.6538e-006 xyz
    dof rx ry rz
  end
  begin
    id 25
    name LeftToes
    direction 0.00818058 -0.00485161 0.999955
    length 3.85048
    axis 1.06247e-005 4.65869e-005 -8.65513e-006 xyz
    dof rx ry rz
  end
:hierarchy
  begin
    root RightUpLegDummy SpineDummy LeftUpLegDummy
    RightUpLegDummy RightUpLeg
    RightUpLeg RightLeg
    RightLeg RightFoot
    RightFoot RightToes
    SpineDummy Spine
    Spine Spine1
    Spine1 HEadDummy LeftShoulder1Dummy RightShoulderDummy
    HEadDummy HEad
    LeftShoulder1Dummy LeftShoulder1
    LeftShoulder1 LeftArm
    LeftArm LeftForeArm
    LeftForeArm LeftHand
    RightShoulderDummy RightShoulder
    RightShoulder RightArm
    RightArm RightForeArm
    RightForeArm RightHand
    LeftUpLegDummy LeftUpLeg
    LeftUpLeg LeftLeg
    LeftLeg LeftFoot
    LeftFoot LeftToes
  end

:SAMPLES-PER-SECOND 30
:FULLY-SPECIFIED
:DEGREES
109
root  52.6806 33.5937 11.8725 -168.651 -54.2398 174.188
RightUpLeg  -20.8632 -16.0866 -3.14375
RightLeg  23.239 -1.90834 -0.680732
RightFoot  2.2866 0.00998146 -0.249748
RightToes  -31.2968 -0.152952 -0.260877
Spine  5.87877 -3.83727 2.19127
Spine1  10.4298 -8.61695 4.46645
HEad  18.127 12.3847 -1.54656
LeftShoulder1  0 -2.42657e-020 -4.95415e-022
LeftArm  -14.3281 -3.72002 -99.8506
LeftForeArm  52.7352 -25.7444 -4.83977
LeftHand  0.438781 -11.5614 -4.70494
RightShoulder  0 2.42657e-020 1.07489e-018
RightArm  -58.7122 -5.3265 74.4594
RightForeArm  62.8117 10.4931 1.82048
RightHand  -1.95197 19.5987 -10.8996
LeftUpLeg  -10.2637 9.42157 11.4379
LeftLeg  27.2728 10.0262 4.34455
LeftFoot  12.5559 -0.205835 1.87086
LeftToes  -17.627 3.33339e-006 -4.73431e-007
110
root  52.7154 33.637 11.5739 -168.532 -54.3924 174.305
RightUpLeg  -20.3296 -15.7104 -2.67686
RightLeg  22.3997 -2.39176 -0.812465
RightFoot  2.24801 0.0112278 -0.269157
RightToes  -31.0193 -0.151395 -0.259515
Spine  5.86016 -3.88573 2.25898
Spine1  10.3602 -8.68427 4.51489
HEad  17.3105 12.5656 -1.68288
LeftShoulder1  0 -2.42657e-020 -4.95415e-022
LeftArm  -12.9687 -4.30736 -100.054
LeftForeArm  52.8629 -25.8768 -4.86844
LeftHand  0.449991 -11.629 -4.78956
RightShoulder  0 2.42657e-020 1.07489e-018
RightArm  -55.2784 -4.99985 74.4251
RightForeArm  59.081 12.7062 2.2341
RightHand  -1.94019 20.0043 -10.6017
LeftUpLeg  -10.2443 8.9335 11.7214
LeftLeg  26.861 10.463 4.44294
LeftFoot  13.3562 -0.248608 2.12306
LeftToes  -16.9155 3.33339e-006 -4.73431e-007
111
root  52.7372 33.6527 11.3654 -168.276 -54.3986 174.241
RightUpLeg  -20.2159 -15.669 -2.39459
RightLeg  22.1419 -2.46423 -0.824489
RightFoot  2.00795 0.0108596 -0.260971
RightToes  -30.589 -0.150254 -0.258489
Spine  5.87596 -3.88707 2.2698
Spine1  10.3273 -8.68093 4.50408
HEad  16.5152 12.6616 -1.9052
LeftShoulder1  0 -2.42657e-020 -4.95415e-022
LeftArm  -12.808 -4.8773 -100.244
LeftForeArm  53.118 -25.4187 -4.7682
LeftHand  0.417996 -11.4763 -4.5306
RightShoulder  0 2.42657e-020 1.07489e-018
RightArm  -51.3813 -4.76104 74.3809
RightForeArm  55.8201 15.2286 2.71213
RightHand  -1.94618 20.5508 -10.3382
LeftUpLeg  -10.2196 8.8667 11.9475
LeftLeg  26.5354 10.378 4.33857
LeftFoot  13.9132 -0.267254 2.19004
LeftToes  -15.9863 3.33339e-006 -4.73431e-007
112
root  52.7389 33.6509 11.2287 -168.034 -54.3102 174.093
RightUpLeg  -20.4394 -16.3608 -2.22964
RightLeg  22.5118 -1.72459 -0.590535
RightFoot  1.59426 0.0082733 -0.216229
RightToes  -30.1379 -0.149503 -0.257787
Spine  5.97669 -3.8475 2.2375
Spine1  10.4582 -8.60124 4.43879
HEad  15.6057 12.7258 -2.25773
LeftShoulder1  0 -2.42657e-020 -4.95415e-022
LeftArm  -13.6963 -5.43474 -100.359
LeftForeArm  53.6478 -24.5806 -4.5867
LeftHand  0.396432 -11.432 -4.33154
RightShoulder  0 2.42657e-020 1.07489e-018
RightArm  -47.1865 -4.37591 74.2442
RightForeArm  52.6768 17.8438 3.21957
RightHand  -1.95786 20.9227 -10.2075
LeftUpLeg  -9.99862 9.37141 12.2441
LeftLeg  26.1355 9.27361 3.80702
LeftFoot  14.1575 -0.238062 1.91688
LeftToes  -15.5799 3.33339e-006 -4.73431e-007
113
root  52.7313 33.646 11.1814 -167.704 -54.1398 173.945
RightUpLeg  -20.5764 -16.0497 -2.23918
RightLeg  22.4189 -1.89377 -0.644686
RightFoot  1.5564 0.00861183 -0.215205
RightToes  -30.3881 -0.149119 -0.257399
Spine  6.06083 -3.78884 2.2031
Spine1  10.5507 -8.48503 4.37354
HEad  14.8238 12.8782 -2.77125
LeftShoulder1  0 -2.42657e-020 -4.95415e-022
LeftArm  -15.256 -5.85557 -100.375
LeftForeArm  54.2809 -23.4128 -4.33812
LeftHand  0.351183 -11.1094 -3.98226
RightShoulder  0 2.42657e-020 1.07489e-018
RightArm  -43.3572 -3.67702 73.9875
RightForeArm  50.6446 20.0182 3.65195
RightHand  -2.02532 21.0735 -10.4903
LeftUpLeg  -9.87026 10.0081 12.4272
LeftLeg  25.7232 8.11658 3.26852
LeftFoot  14.5497 -0.209715 1.64268
LeftToes  -16.8943 3.33339e-006 -4.73431e-007
